<?xml version="1.0" encoding="utf-8"?>
<!-- Generator: Adobe Illustrator 18.1.1, SVG Export Plug-In . SVG Version: 6.00 Build 0)  -->
<svg version="1.1" xmlns="http://www.w3.org/2000/svg" xmlns:xlink="http://www.w3.org/1999/xlink" x="0px" y="0px"
	 viewBox="0 0 216 216.6" enable-background="new 0 0 216 216.6" xml:space="preserve">
<g id="bck">
</g>
<g id="Layer_1">
	<rect x="-9.6" y="-9.2" fill="#00ADEA" width="234" height="117.2"/>
	<g>
		<g>
			<g>
				<path fill="#FFFFFF" d="M48.5,69.9c2.4,0,4.4,1.8,4.4,4.3c0,2.5-2,4.2-4.4,4.2h-3.7v-8.6H48.5z M48.6,77.2c1.6,0,3-1.1,3-3
					c0-1.9-1.4-3-3-3h-2.3v6H48.6z"/>
				<path fill="#FFFFFF" d="M60.4,77.2v1.3h-6v-8.6h5.9v1.3h-4.5v2.2h3.6v1.2h-3.6v2.6H60.4z"/>
				<path fill="#FFFFFF" d="M69.8,69.9l-3.5,8.6h-1.4l-3.5-8.6h1.5l2.3,5.7c0.3,0.7,0.5,1.4,0.5,1.4h0c0,0,0.2-0.7,0.5-1.4l2.3-5.7
					H69.8z"/>
				<path fill="#FFFFFF" d="M76.8,77.2v1.3h-6v-8.6h5.9v1.3h-4.5v2.2h3.6v1.2h-3.6v2.6H76.8z"/>
				<path fill="#FFFFFF" d="M84.5,77.2v1.3h-5.8v-8.6H80v7.3H84.5z"/>
				<path fill="#FFFFFF" d="M89.3,69.7c2.5,0,4.5,1.9,4.5,4.5s-2,4.5-4.5,4.5c-2.5,0-4.4-1.9-4.4-4.5S86.8,69.7,89.3,69.7z
					 M89.3,77.3c1.8,0,3-1.3,3-3.1c0-1.9-1.3-3.1-3-3.1c-1.8,0-3,1.2-3,3.1C86.3,76,87.5,77.3,89.3,77.3z"/>
				<path fill="#FFFFFF" d="M98.1,69.9c2,0,3.3,1.1,3.3,2.8c0,1.7-1.2,2.8-3.3,2.8h-1.5v3h-1.4v-8.6H98.1z M98,74.2
					c1.2,0,1.9-0.6,1.9-1.5c0-1-0.7-1.5-1.9-1.5h-1.5v3.1H98z"/>
				<path fill="#FFFFFF" d="M108.6,77.2v1.3h-6v-8.6h5.9v1.3H104v2.2h3.6v1.2H104v2.6H108.6z"/>
				<path fill="#FFFFFF" d="M115.3,78.5l-1.8-3.1c-0.1,0-0.2,0-0.3,0h-1.4v3.1h-1.4v-8.6h2.8c2.1,0,3.3,1.1,3.3,2.8
					c0,1.2-0.6,2.1-1.7,2.5l2,3.3H115.3z M113.4,74.2c1.2,0,1.7-0.7,1.7-1.5c0-0.9-0.6-1.5-1.7-1.5h-1.6v3H113.4z"/>
				<path fill="#FFFFFF" d="M126,72.4c-0.2-1-1-1.5-1.9-1.5c-1,0-1.6,0.5-1.6,1.2c0,0.8,1.1,1.1,2.2,1.4c1.2,0.4,2.8,1,2.8,2.6
					c0,1.5-1.3,2.6-3.2,2.6c-1.8,0-3-1.1-3.4-2.5l1.3-0.4c0.2,0.9,0.9,1.7,2.1,1.7c1.1,0,1.7-0.6,1.7-1.3c0-1.1-1.3-1.3-2.5-1.7
					c-1-0.3-2.4-0.8-2.4-2.3c0-1.3,1.3-2.4,3-2.4c1.6,0,2.8,0.9,3.2,2.3L126,72.4z"/>
				<path fill="#FFFFFF" d="M132,78.6c-2.1-0.3-3.7-2.1-3.7-4.4c0-2.6,2-4.5,4.4-4.5c2.5,0,4.5,1.9,4.5,4.5c0,2.3-1.7,4.1-3.8,4.4
					v1.5H132V78.6z M135.8,74.2c0-1.9-1.3-3.1-3-3.1c-1.8,0-3,1.2-3,3.1c0,1.8,1.3,3.1,3,3.1C134.5,77.3,135.8,76,135.8,74.2z"/>
				<path fill="#FFFFFF" d="M145.7,69.9v4.9c0,2.5-1.4,3.8-3.6,3.8s-3.6-1.3-3.6-3.8v-4.9h1.4v4.9c0,1.7,0.8,2.6,2.2,2.6
					c1.5,0,2.3-0.8,2.3-2.6v-4.9H145.7z"/>
				<path fill="#FFFFFF" d="M152.4,76.5h-4l-0.8,1.9h-1.5l3.6-8.6h1.3l3.6,8.6h-1.5L152.4,76.5z M151.9,75.3l-1.1-2.7
					c-0.2-0.5-0.4-1.1-0.4-1.1h0c0,0-0.2,0.6-0.4,1.1l-1.1,2.7H151.9z"/>
				<path fill="#FFFFFF" d="M160.6,78.5l-1.8-3.1c-0.1,0-0.2,0-0.3,0H157v3.1h-1.4v-8.6h2.8c2.1,0,3.3,1.1,3.3,2.8
					c0,1.2-0.6,2.1-1.7,2.5l2,3.3H160.6z M158.7,74.2c1.2,0,1.7-0.7,1.7-1.5c0-0.9-0.6-1.5-1.7-1.5H157v3H158.7z"/>
				<path fill="#FFFFFF" d="M169.6,77.2v1.3h-6v-8.6h5.9v1.3H165v2.2h3.6v1.2H165v2.6H169.6z"/>
			</g>
		</g>
		<circle fill="#FFFFFF" cx="100.4" cy="50.7" r="7.3"/>
		<circle fill="#FFFFFF" cx="113.8" cy="37.1" r="7.3"/>
		<circle fill="#FFEF00" cx="113.8" cy="50.7" r="7.3"/>
		<circle fill="#FFEF00" cx="100.4" cy="37.1" r="7.3"/>
	</g>
	<rect x="-9.6" y="107.8" fill="#FFFFFF" width="234" height="117.4"/>
	<g>
		<g>
			<g>
				<g>
					<path fill="#565351" d="M48.5,177.2c2.4,0,4.4,1.8,4.4,4.3c0,2.5-2,4.2-4.4,4.2h-3.7v-8.6H48.5z M48.6,184.5c1.6,0,3-1.1,3-3
						c0-1.9-1.4-3-3-3h-2.3v6H48.6z"/>
					<path fill="#565351" d="M60.4,184.5v1.3h-6v-8.6h5.9v1.3h-4.5v2.2h3.6v1.2h-3.6v2.6H60.4z"/>
					<path fill="#565351" d="M69.8,177.2l-3.5,8.6h-1.4l-3.5-8.6h1.5l2.3,5.7c0.3,0.7,0.5,1.4,0.5,1.4h0c0,0,0.2-0.7,0.5-1.4
						l2.3-5.7H69.8z"/>
					<path fill="#565351" d="M76.8,184.5v1.3h-6v-8.6h5.9v1.3h-4.5v2.2h3.6v1.2h-3.6v2.6H76.8z"/>
					<path fill="#565351" d="M84.5,184.5v1.3h-5.8v-8.6H80v7.3H84.5z"/>
					<path fill="#565351" d="M89.3,177.1c2.5,0,4.5,1.9,4.5,4.5s-2,4.5-4.5,4.5c-2.5,0-4.4-1.9-4.4-4.5S86.8,177.1,89.3,177.1z
						 M89.3,184.6c1.8,0,3-1.3,3-3.1c0-1.9-1.3-3.1-3-3.1c-1.8,0-3,1.2-3,3.1C86.3,183.4,87.5,184.6,89.3,184.6z"/>
					<path fill="#565351" d="M98.1,177.2c2,0,3.3,1.1,3.3,2.8s-1.2,2.8-3.3,2.8h-1.5v3h-1.4v-8.6H98.1z M98,181.6
						c1.2,0,1.9-0.6,1.9-1.5c0-1-0.7-1.5-1.9-1.5h-1.5v3.1H98z"/>
					<path fill="#565351" d="M108.6,184.5v1.3h-6v-8.6h5.9v1.3H104v2.2h3.6v1.2H104v2.6H108.6z"/>
					<path fill="#565351" d="M115.3,185.8l-1.8-3.1c-0.1,0-0.2,0-0.3,0h-1.4v3.1h-1.4v-8.6h2.8c2.1,0,3.3,1.1,3.3,2.8
						c0,1.2-0.6,2.1-1.7,2.5l2,3.3H115.3z M113.4,181.5c1.2,0,1.7-0.7,1.7-1.5c0-0.9-0.6-1.5-1.7-1.5h-1.6v3H113.4z"/>
					<path fill="#565351" d="M126,179.7c-0.2-1-1-1.5-1.9-1.5c-1,0-1.6,0.5-1.6,1.2c0,0.8,1.1,1.1,2.2,1.4c1.2,0.4,2.8,1,2.8,2.6
						c0,1.5-1.3,2.6-3.2,2.6c-1.8,0-3-1.1-3.4-2.5l1.3-0.4c0.2,0.9,0.9,1.7,2.1,1.7c1.1,0,1.7-0.6,1.7-1.3c0-1.1-1.3-1.3-2.5-1.7
						c-1-0.3-2.4-0.8-2.4-2.3c0-1.3,1.3-2.4,3-2.4c1.6,0,2.8,0.9,3.2,2.3L126,179.7z"/>
					<path fill="#565351" d="M132,185.9c-2.1-0.3-3.7-2.1-3.7-4.4c0-2.6,2-4.5,4.4-4.5c2.5,0,4.5,1.9,4.5,4.5c0,2.3-1.7,4.1-3.8,4.4
						v1.5H132V185.9z M135.8,181.5c0-1.9-1.3-3.1-3-3.1c-1.8,0-3,1.2-3,3.1c0,1.8,1.3,3.1,3,3.1
						C134.5,184.6,135.8,183.4,135.8,181.5z"/>
					<path fill="#565351" d="M145.7,177.2v4.9c0,2.5-1.4,3.8-3.6,3.8s-3.6-1.3-3.6-3.8v-4.9h1.4v4.9c0,1.7,0.8,2.6,2.2,2.6
						c1.5,0,2.3-0.8,2.3-2.6v-4.9H145.7z"/>
					<path fill="#565351" d="M152.4,183.9h-4l-0.8,1.9h-1.5l3.6-8.6h1.3l3.6,8.6h-1.5L152.4,183.9z M151.9,182.7l-1.1-2.7
						c-0.2-0.5-0.4-1.1-0.4-1.1h0c0,0-0.2,0.6-0.4,1.1l-1.1,2.7H151.9z"/>
					<path fill="#565351" d="M160.6,185.8l-1.8-3.1c-0.1,0-0.2,0-0.3,0H157v3.1h-1.4v-8.6h2.8c2.1,0,3.3,1.1,3.3,2.8
						c0,1.2-0.6,2.1-1.7,2.5l2,3.3H160.6z M158.7,181.5c1.2,0,1.7-0.7,1.7-1.5c0-0.9-0.6-1.5-1.7-1.5H157v3H158.7z"/>
					<path fill="#565351" d="M169.6,184.5v1.3h-6v-8.6h5.9v1.3H165v2.2h3.6v1.2H165v2.6H169.6z"/>
				</g>
			</g>
		</g>
		<circle fill="#00ADEA" cx="100.4" cy="158" r="7.3"/>
		<circle fill="#00ADEA" cx="113.8" cy="144.5" r="7.3"/>
		<circle fill="#FFEF00" cx="113.8" cy="158" r="7.3"/>
		<circle fill="#FFEF00" cx="100.4" cy="144.5" r="7.3"/>
	</g>
</g>
</svg>
